<svg xmlns="http://www.w3.org/2000/svg" version="1.1" xmlns:xlink="http://www.w3.org/1999/xlink" xmlns:svgjs="http://svgjs.com/svgjs" width="1440" height="800" preserveAspectRatio="none" viewBox="0 0 1440 800"><g mask="url(&quot;#SvgjsMask1030&quot;)" fill="none"><rect width="1440" height="800" x="0" y="0" fill="rgba(16, 72, 85, 1)"></rect><path d="M928.848,460.272C964.452,462.101,1004.318,457.313,1022.882,426.877C1041.969,395.584,1030.346,356.304,1011.404,324.923C993.209,294.779,964.056,270.706,928.848,271.093C894.196,271.473,865.732,296.152,849.374,326.702C833.976,355.459,833.504,389.971,850.184,418.004C866.498,445.422,896.986,458.635,928.848,460.272" fill="rgba(18, 127, 162, 1)" class="triangle-float1"></path><path d="M706.1711856991656 272.0013921852476L454.4466941033451 343.9226754983392 616.2695815578011 505.7455629527951z" fill="rgba(18, 127, 162, 1)" class="triangle-float2"></path><path d="M583.34 45.45 a184.86 184.86 0 1 0 369.72 0 a184.86 184.86 0 1 0 -369.72 0z" fill="rgba(18, 127, 162, 1)" class="triangle-float2"></path><path d="M539.38 690.53 a202.51 202.51 0 1 0 405.02 0 a202.51 202.51 0 1 0 -405.02 0z" fill="rgba(18, 127, 162, 1)" class="triangle-float2"></path><path d="M990.5948881498799 391.9589372519855L1212.2988645571156 319.922948584119 1140.2628758892492 98.21897217688326 918.5588994820134 170.25496084474975z" fill="rgba(18, 127, 162, 1)" class="triangle-float1"></path><path d="M1103.7251498150326 415.65523244723937L1258.7428393518715 448.60525953322065 1230.659035212424 199.60371168497176z" fill="rgba(18, 127, 162, 1)" class="triangle-float3"></path><path d="M1454.4632660896855 241.9460882725134L1327.7231276158554 139.3139477714817 1225.0909871148237 266.0540862453117 1351.8311255886538 368.6862267463434z" fill="rgba(18, 127, 162, 1)" class="triangle-float2"></path><path d="M994.6025943468328 777.6496963983134L1022.900209383267 870.2070246370905 1147.5873942232156 781.4819379630507z" fill="rgba(18, 127, 162, 1)" class="triangle-float1"></path><path d="M270.67956108174803 373.54263533780545L270.67956108174803 275.40669836375434 123.4756556206714 324.47466685077995z" fill="rgba(18, 127, 162, 1)" class="triangle-float1"></path><path d="M1325.2012573704044 316.7674755014596L1284.1165352967098 470.09774569533437 1437.4468054905847 511.18246776902896 1478.5315275642793 357.8521975751542z" fill="rgba(18, 127, 162, 1)" class="triangle-float1"></path><path d="M461.53 436.21 a183.76 183.76 0 1 0 367.52 0 a183.76 183.76 0 1 0 -367.52 0z" fill="rgba(18, 127, 162, 1)" class="triangle-float1"></path><path d="M1018.0825960847275 513.8698687919598L928.4421425066305 537.8889559373704 1009.2910000137949 660.3400927318104z" fill="rgba(18, 127, 162, 1)" class="triangle-float3"></path><path d="M102.18886386872691 803.5337069431266L253.3542012656067 852.6503024510655 302.47079677354566 701.4849650541857 151.30545937666585 652.3683695462469z" fill="rgba(18, 127, 162, 1)" class="triangle-float3"></path><path d="M-93.42136024143271 425.6993805945833L-131.55211704486123 558.677132625445 86.97988940314542 549.384391815157z" fill="rgba(18, 127, 162, 1)" class="triangle-float2"></path><path d="M397.68,803.105C467.352,805.723,537.808,782.73,576.363,724.639C619.165,660.15,634.224,574.224,593.12,508.639C553.79,445.886,471.732,438.487,397.68,439.54C326.086,440.558,247.355,452.009,211.636,514.064C175.972,576.025,202.144,651.913,240.838,712.029C275.908,766.514,332.93,800.672,397.68,803.105" fill="rgba(18, 127, 162, 1)" class="triangle-float2"></path></g><defs><mask id="SvgjsMask1030"><rect width="1440" height="800" fill="#ffffff"></rect></mask><style>
            @keyframes float1 {
                0%{transform: translate(0, 0)}
                50%{transform: translate(-10px, 0)}
                100%{transform: translate(0, 0)}
            }

            .triangle-float1 {
                animation: float1 5s infinite;
            }

            @keyframes float2 {
                0%{transform: translate(0, 0)}
                50%{transform: translate(-5px, -5px)}
                100%{transform: translate(0, 0)}
            }

            .triangle-float2 {
                animation: float2 4s infinite;
            }

            @keyframes float3 {
                0%{transform: translate(0, 0)}
                50%{transform: translate(0, -10px)}
                100%{transform: translate(0, 0)}
            }

            .triangle-float3 {
                animation: float3 6s infinite;
            }
        </style></defs></svg>