<svg xmlns="http://www.w3.org/2000/svg" version="1.1" xmlns:xlink="http://www.w3.org/1999/xlink" xmlns:svgjs="http://svgjs.com/svgjs" width="1440" height="600" preserveAspectRatio="none" viewBox="0 0 1440 600"><g mask="url(&quot;#SvgjsMask1011&quot;)" fill="none"><rect width="1440" height="600" x="0" y="0" fill="#0e2a47"></rect><path d="M823.87 423.51L869.8 423.51L869.8 471.65L823.87 471.65z" stroke="#037b0b"></path><path d="M904.43 354.56 a16.13 16.13 0 1 0 32.26 0 a16.13 16.13 0 1 0 -32.26 0z" fill="#037b0b"></path><path d="M456.05 162.03a4.24 4.24 0 1 0-8.28 1.81z" fill="#e73635"></path><path d="M57.68 521.38 a59.55 59.55 0 1 0 119.1 0 a59.55 59.55 0 1 0 -119.1 0z" fill="#e73635"></path><path d="M114.67 536.1a33.16 33.16 0 1 0-29.83 59.23z" stroke="rgba(101, 219, 135, 1)"></path><path d="M893.39 502.78a28.41 28.41 0 1 0 32.15-46.85z" stroke="#e73635"></path><path d="M4.68 341.68L57.04 341.68L57.04 383.36L4.68 383.36z" stroke="#e73635"></path><path d="M1198.02 12.41a2.78 2.78 0 1 0 3.96-3.9z" fill="rgba(101, 219, 135, 1)"></path><path d="M882.26 547.4 a20.85 20.85 0 1 0 41.7 0 a20.85 20.85 0 1 0 -41.7 0z" stroke="#e73635"></path><path d="M493.97 269.54a4.97 4.97 0 1 0 5.6-8.22z" fill="rgba(101, 219, 135, 1)"></path><path d="M311.47 377.65 a35.93 35.93 0 1 0 71.86 0 a35.93 35.93 0 1 0 -71.86 0z" stroke="#e73635"></path><path d="M1338.66 142.91L1388.4 142.91L1388.4 186.07L1338.66 186.07z" fill="#e73635"></path><path d="M1101.4 147.9 a53.79 53.79 0 1 0 107.58 0 a53.79 53.79 0 1 0 -107.58 0z" fill="#037b0b"></path><path d="M1310.5 156.68L1358.47 156.68L1358.47 201.41L1310.5 201.41z" stroke="rgba(101, 219, 135, 1)"></path><path d="M1040.83 210.43L1042.09 210.43L1042.09 243.71L1040.83 243.71z" stroke="rgba(101, 219, 135, 1)"></path><path d="M1263.55 554.07L1275.1 554.07L1275.1 592.07L1263.55 592.07z" fill="#e73635"></path><path d="M42.34 110.79 a40.79 40.79 0 1 0 81.58 0 a40.79 40.79 0 1 0 -81.58 0z" fill="rgba(101, 219, 135, 1)"></path><path d="M1166.17 30.71L1197.38 30.71L1197.38 74.36L1166.17 74.36z" stroke="rgba(101, 219, 135, 1)"></path><path d="M332.32 491.13L346.15 491.13L346.15 504.96L332.32 504.96z" stroke="rgba(101, 219, 135, 1)"></path><path d="M832.23 126.53 a35.98 35.98 0 1 0 71.96 0 a35.98 35.98 0 1 0 -71.96 0z" stroke="rgba(101, 219, 135, 1)"></path><path d="M34.98 598.16L49.07 598.16L49.07 600.01L34.98 600.01z" fill="rgba(101, 219, 135, 1)"></path><path d="M978.46 369.71 a14.17 14.17 0 1 0 28.34 0 a14.17 14.17 0 1 0 -28.34 0z" fill="rgba(101, 219, 135, 1)"></path><path d="M458.2 140.88a26.1 26.1 0 1 0-4.88 51.97z" stroke="rgba(101, 219, 135, 1)"></path><path d="M875.89 43.35L891.96 43.35L891.96 59.42L875.89 59.42z" fill="#e73635"></path><path d="M252.43 548.43L286.05 548.43L286.05 549.63L252.43 549.63z" stroke="rgba(101, 219, 135, 1)"></path><path d="M523.9 151.72L547.57 151.72L547.57 181.28L523.9 181.28z" stroke="#e73635"></path><path d="M54.73 403.91L101.25 403.91L101.25 450.43L54.73 450.43z" stroke="#037b0b"></path><path d="M777.15 473.1a59.87 59.87 0 1 0-43.98-111.37z" stroke="#e73635"></path><path d="M826.4 570.73L834.69 570.73L834.69 579.02L826.4 579.02z" fill="#037b0b"></path><path d="M74.91 273.08L113.77 273.08L113.77 311.94L74.91 311.94z" fill="rgba(101, 219, 135, 1)"></path></g><defs><mask id="SvgjsMask1011"><rect width="1440" height="600" fill="#ffffff"></rect></mask></defs></svg>